<?xml version="1.0" standalone="no"?><!DOCTYPE svg PUBLIC "-//W3C//DTD SVG 1.1//EN" "http://www.w3.org/Graphics/SVG/1.1/DTD/svg11.dtd"><svg t="1612229581362" class="icon" viewBox="0 0 2539 1024" version="1.1" xmlns="http://www.w3.org/2000/svg" p-id="6823" xmlns:xlink="http://www.w3.org/1999/xlink" width="317.375" height="128"><defs><style type="text/css"></style></defs><path d="M1140.338321 526.736087 1140.338321 239.585595 66.048978 239.585595l0 287.150492 0 0.737557L522.912833 527.473644l0 274.326033c0 50.725856-8.89584 75.998471-26.326268 91.261385-17.565897 15.338174-44.449096 23.37604-79.957195 24.038336l0 85.616816c92.315037-2.935176 159.83913-22.89437 202.722799-60.238836 42.61273-37.224048 64.182508-94.422343 64.182508-170.962693L683.534676 527.473644l456.803645 0L1140.338321 526.736087zM985.571777 437.867999 221.056357 437.867999l0-108.691812 764.51542 0L985.571777 437.867999z" p-id="6824" fill="#ffffff"></path><path d="M684.212024 21.870822 522.912833 21.870822 522.912833 89.500279 26.898251 89.500279 26.898251 179.090872 1179.489049 179.090872 1179.489049 89.500279 684.212024 89.500279Z" p-id="6825" fill="#ffffff"></path><path d="M26.898251 999.93156l91.442011 0c195.542908-170.330501 246.614964-413.062002 246.614964-413.062002L188.378068 586.869558C166.883551 758.660121 94.618021 903.341702 26.898251 999.93156" p-id="6826" fill="#ffffff"></path><path d="M842.09437 586.839453c0 0 50.771013 242.79171 245.922564 413.062002l91.472115 0c-67.689666-96.589857-139.804674-241.21123-161.254035-413.062002L842.09437 586.839453z" p-id="6827" fill="#ffffff"></path><path d="M1348.615376 999.93156l91.36675 0c195.512803-170.330501 246.509599-413.062002 246.509599-413.062002l-176.411583 0C1488.510363 758.660121 1416.259885 903.341702 1348.615376 999.93156" p-id="6828" fill="#ffffff"></path><path d="M2164.142643 586.839453c0 0 50.936587 242.79171 246.419286 413.062002l91.517272 0c-67.689666-96.589857-139.970248-241.21123-161.449713-413.062002L2164.142643 586.839453z" p-id="6829" fill="#ffffff"></path><path d="M1754.121182 89.500279l31.639688-68.171336-161.765809 0-31.730001 68.171336L1348.389593 89.500279l0 89.590592 202.060503 0L1387.856416 527.473644l468.047626 0 0 274.31098c0 52.998736-8.76037 76.013523-26.235955 91.261385-17.671263 15.338174-44.358783 23.391092-79.881934 24.083493l0 85.556607c92.179568-2.905071 159.70366-22.879318 202.66259-60.223784 42.793356-37.224048 64.423343-94.422343 64.423343-170.947641L2016.872086 527.473644l445.785448 0 0-4.27482 0-85.345877-445.785448 0L2016.872086 245.395737l-160.968044 0 0 192.472262-262.434808 0 119.439071-258.762076 789.155843 0L2502.064148 89.500279 1754.121182 89.500279z" p-id="6830" fill="#ffffff"></path></svg>