<?xml version="1.0" standalone="no"?><!DOCTYPE svg PUBLIC "-//W3C//DTD SVG 1.1//EN" "http://www.w3.org/Graphics/SVG/1.1/DTD/svg11.dtd"><svg t="1612229598484" class="icon" viewBox="0 0 2139 1024" version="1.1" xmlns="http://www.w3.org/2000/svg" p-id="7019" xmlns:xlink="http://www.w3.org/1999/xlink" width="267.375" height="128"><defs><style type="text/css"></style></defs><path d="M1985.673552 143.635104H1374.819343a27.632716 27.632716 0 0 0-33.700298 20.724538c-1.069851 4.340537-1.069851 8.895045 0 13.250865v663.062926c0 33.700299 8.558806 38.132537 38.117254 38.132537h594.837014a40.608478 40.608478 0 0 0 50.282986-27.632716 39.783164 39.783164 0 0 0 0-21.274747V181.477254c-3.606925-33.975403-12.165731-37.842149-38.69803-37.84215z m-55.265433 253.340657h-15.742089c-59.392 0-55.250149-8.283701-55.250149 55.250149v279.597851c0 75.959403-25.416597 105.533134-101.681672 113.83212a1172.617552 1172.617552 0 0 1-119.349493 0 22.650269 22.650269 0 0 1-25.416597-25.141493v-8.849194c0-67.400597 0-67.400597 63.549135-67.400597 63.533851 0 76.8-12.440836 76.8-76.265075v-212.441791a1078.86806 1078.86806 0 0 1-337.889433 308.575523V650.316418a41.158687 41.158687 0 0 1 29.848836-33.975403 762.23809 762.23809 0 0 0 221.01588-214.948299H1415.427821c-30.108657 0-42.549493-4.416955-42.549493-38.117253 4.432239-67.706269 0-67.706269 67.96609-67.706269h280.423164c29.833552 0 38.132537-8.558806 33.700299-33.685015v-29.283343c0-58.857075-12.425552-55.265433 55.265432-55.265433 38.117254 0 51.108299 8.558806 48.341971 48.066866a195.599284 195.599284 0 0 0 0 50.848477 20.999642 20.999642 0 0 0 15.742089 25.416597c3.178985 0.825313 6.510806 0.825313 9.674508 0 16.964776 2.200836 34.143522 2.200836 51.108298 0 48.357254-8.298985 51.123582 12.425552 51.123582 48.34197 0 35.916418-11.890627 55.250149-55.265433 46.691344l-0.550209 0.275104z m-1410.368955 169.082269h27.617433a87.299821 87.299821 0 0 0-27.632716 0zM946.023164 1008.105075a587.088239 587.088239 0 0 1-429.315821-221.031165C397.617672 952.839642 223.293134 985.454806 40.96 1010.856119c-25.416597 4.432239-33.700299-4.126567-29.833552-29.283343a151.949373 151.949373 0 0 1 4.416955-76.249791c12.440836-21.274746 42.274388-8.283701 67.96609-12.425552a1041.83594 1041.83594 0 0 0 195.324179-55.265433 294.514627 294.514627 0 0 0 122.941134-103.04191H49.258985a25.141493 25.141493 0 0 1-29.848836-19.349015 32.874985 32.874985 0 0 1 0-11.600239C15.283582 627.666149 15.283582 627.666149 91.793194 627.666149h310.547105c29.833552 0 48.34197-4.416955 48.34197-38.132537a21.549851 21.549851 0 0 1 14.366567-25.676418H56.442269A42.549493 42.549493 0 0 1 13.602388 521.842627a41.449075 41.449075 0 0 1 0-6.082866c4.126567-67.690985-8.849194-58.841791 59.392-58.841791h337.614328c25.416597 0 42.259104 4.126567 42.259105-33.990686s-16.842507-33.700299-48.066866-33.700299H120.251224c-30.108657 0-42.549493-8.558806-38.117254-38.132537v-30.383761c-4.432239-25.141493 4.126567-38.132537 33.700299-33.700299h293.398925c25.416597 0 37.857433 0 37.857433-33.715582a27.632716 27.632716 0 0 0-19.899224-34.800716c-5.807761-2.002149-12.135164-2.002149-17.958209 0H87.926448c-63.808955 0-51.108299 8.283701-55.250149-55.265433-4.432239-33.700299 8.558806-48.066866 48.066865-41.724179 63.824239 4.157134 127.373373 0 199.756418 0A479.904478 479.904478 0 0 1 212.533493 3.301254h101.941492a22.375164 22.375164 0 0 1 20.999642 12.425552c3.851463 5.089433 6.847045 10.790209 8.83391 16.857791 38.132537 59.392 80.391642 105.808239 161.623881 88.950448h20.174328a132.615642 132.615642 0 0 0 152.774687-80.116538A63.27403 63.27403 0 0 1 747.122627 4.386388c22.619701 1.941015 45.346388 1.941015 67.966089 0a364.681552 364.681552 0 0 1-67.966089 119.624597h204.173373a30.658866 30.658866 0 0 1 37.842149 21.274746c1.650627 5.50209 1.650627 11.355701 0 16.857791 0 58.291582 0 58.291582-64.099343 58.291582H601.531224c-29.848836 0-33.715582 8.83391-33.715582 38.132538a27.632716 27.632716 0 0 0 20.724537 33.975403c4.279403 0.825313 8.711642 0.825313 12.991045 0h293.398925c29.833552 0 48.066866 8.008597 38.132538 38.132537v16.842508c8.558806 42.274388-12.71594 48.082149-48.357254 48.082149-89.240836-4.141851-178.466388 0-267.707224 0-21.274746 0-51.108299-12.440836-51.108299 33.700298s25.691701 33.975403 51.108299 33.975403h348.389254c29.833552 0 42.259104 4.157134 42.259104 38.132538-4.126567 62.998925 0 62.998925-63.533851 62.998925h-395.080597c15.482269 3.591642 24.591284 14.641672 18.798806 42.534209-5.807761 27.907821 21.259463 21.274746 33.700299 21.274746h356.94806c33.700299 0 51.108299 8.558806 42.534209 42.549493v29.283343c4.432239 25.141493-8.83391 33.700299-33.700299 33.700299H610.365134c67.96609 96.439403 165.765731 126.823164 267.707224 151.964656 33.516896 7.687642 67.477015 13.312 101.681672 16.842508a29.283343 29.283343 0 0 1 33.700298 24.316179c0.565493 3.209552 0.565493 6.464955 0 9.674507 4.432239 75.699582 4.432239 79.841433-67.400597 71.832836v-0.275104z m1184.12609-93.107582c0 62.983642-16.857791 80.116537-80.391642 80.116537H1268.720716c-33.715582 0-38.132537-8.849194-38.132537-38.132537V76.769433c0-29.558448 4.432239-41.984 38.132537-41.984h823.846209c33.715582 0 38.132537 12.425552 38.132538 42.259104v839.068657l-0.550209-1.115701z" p-id="7020" fill="#ffffff"></path></svg>