<?xml version="1.0" standalone="no"?><!DOCTYPE svg PUBLIC "-//W3C//DTD SVG 1.1//EN" "http://www.w3.org/Graphics/SVG/1.1/DTD/svg11.dtd"><svg t="1612171864775" class="icon" viewBox="0 0 1024 1024" version="1.1" xmlns="http://www.w3.org/2000/svg" p-id="16396" xmlns:xlink="http://www.w3.org/1999/xlink" width="128" height="128"><defs><style type="text/css"></style></defs><path d="M512 653.553c126.779 0 229.553-102.773 229.553-229.553V229.553C741.553 102.774 638.779 0 512 0S282.447 102.774 282.447 229.553V424c0 126.779 102.774 229.553 229.553 229.553z" p-id="16397" fill="#fdc19e"></path><path d="M862 424v-50h-80.418v50c0 148.886-120.696 269.582-269.582 269.582S242.418 572.886 242.418 424v-50H162v50c0 179.702 135.429 327.771 309.791 347.715v171.867H212V1024h600v-80.418H552.209V771.715C726.571 751.771 862 603.702 862 424z" p-id="16398" fill="#fdc19e"></path></svg>