<?xml version="1.0" standalone="no"?><!DOCTYPE svg PUBLIC "-//W3C//DTD SVG 1.1//EN" "http://www.w3.org/Graphics/SVG/1.1/DTD/svg11.dtd"><svg t="1612229624723" class="icon" viewBox="0 0 4266 1024" version="1.1" xmlns="http://www.w3.org/2000/svg" p-id="7395" xmlns:xlink="http://www.w3.org/1999/xlink" width="533.25" height="128"><defs><style type="text/css"></style></defs><path d="M463.232 230.144c5.205333 0 9.386667 1.749333 11.818667 5.205333a12.757333 12.757333 0 0 1 2.346666 9.216l-0.682666 3.712-14.506667 58.026667h75.861333c165.504 0 277.76 107.221333 282.453334 268.885333l0.213333 10.666667v150.485333c0 177.152-122.453333 271.402667-280.32 275.328l-10.368 0.128h-75.434667c-12.885333 0-18.090667-7.893333-17.792-15.573333l0.341334-2.858667 14.336-57.856a20.949333 20.949333 0 0 1 17.706666-15.573333l4.266667-0.298667h56.96c99.2 0 180.181333-63.36 184.874667-175.232l0.213333-10.325333v-149.845333c0-99.285333-65.152-180.736-174.976-185.429334l-10.112-0.213333h-91.136L290.090667 997.290667c-2.389333 7.424-8.533333 12.8-16 14.165333l-3.797334 0.341333h-80.213333a14.506667 14.506667 0 0 1-11.776-5.162666 13.781333 13.781333 0 0 1-2.261333-9.301334l0.682666-3.669333L325.034667 398.592H77.653333a16.042667 16.042667 0 0 1-15.616-12.842667l-0.341333-3.2V322.432c0-7.850667 5.418667-14.250667 12.714667-15.744l3.242666-0.298667h270.378667l15.36-61.781333a20.736 20.736 0 0 1 15.957333-14.122667l3.797334-0.341333h80.128z m2444.8-214.869333c125.994667 0 228.266667 102.4 228.266667 228.821333a228.522667 228.522667 0 0 1-218.88 228.522667l-9.386667 0.170666H2422.613333l-32 78.421334h538.154667c121.173333 0 212.181333 96.682667 216.746667 208.426666l0.213333 8.832v25.984c0 112.554667-84.864 212.010667-203.221333 217.173334l-9.685334 0.170666H2862.506667c-13.568 0-18.005333-8.277333-16.298667-16.256l0.810667-2.645333 20.864-52.394667a23.082667 23.082667 0 0 1 19.584-15.573333l3.968-0.213333h17.621333c77.354667 0 128.341333-55.466667 131.797333-125.098667l0.170667-7.509333v-21.248a132.096 132.096 0 0 0-124.458667-132.138667l-7.509333-0.170667h-48.896l-146.005333 357.717334c-3.498667 7.338667-12.714667 13.738667-21.162667 15.232l-3.584 0.298666h-75.904c-16.512 0-17.578667-9.472-16.810667-14.848l0.554667-2.688 0.341333-1.024 144.469334-354.688H2605.226667l-146.005334 357.717334c-3.541333 7.338667-12.672 13.738667-21.205333 15.232l-3.584 0.298666h-75.904c-14.848 0-17.152-7.68-16.896-13.141333l0.426667-3.2 0.682666-2.218667 144.426667-354.688h-132.010667l-67.498666 165.461334a28.288 28.288 0 0 1-20.650667 15.146666l-4.096 0.298667h-69.930667c-16.938667 0-17.322667-10.24-16.128-16.085333l0.768-2.858667 146.474667-359.594667a228.096 228.096 0 0 1-112.725333-196.821333 228.522667 228.522667 0 0 1 218.88-228.650667l9.386666-0.170666h468.394667zM2065.237333 391.850667c7.68 0 14.165333 5.546667 15.658667 12.8l0.341333 3.157333v58.282667c0 7.765333-5.546667 14.208-12.8 15.701333l-3.2 0.298667h-253.098666v250.88c0 160-119.978667 273.792-269.056 278.698666l-9.984 0.128h-225.706667c-12.757333 0-18.005333-7.893333-17.749333-15.573333l0.341333-2.858667 14.336-57.856a20.906667 20.906667 0 0 1 17.664-15.701333l4.266667-0.298667H1506.133333c115.84 0 192.298667-72.832 196.437334-187.52l0.213333-9.941333V482.133333H1141.76a15.957333 15.957333 0 0 1-15.616-12.8l-0.341333-3.2V407.808c0-7.594667 5.461333-14.122667 12.757333-15.658667l3.2-0.298666h923.477333z m1464.618667-165.632c5.76 0 10.581333 4.949333 11.818667 11.52l0.341333 3.456v434.944l173.056 322.133333c0.469333 1.152 0.853333 2.56 0.853333 3.882667 0 4.394667-2.986667 8.192-7.082666 9.301333l-2.56 0.341333H3626.24a24.490667 24.490667 0 0 1-19.882667-10.624l-1.834666-3.029333-112.085334-206.378667-112.213333 206.378667a24.746667 24.746667 0 0 1-17.450667 13.312l-4.181333 0.341333H3278.506667a9.685333 9.685333 0 0 1-9.6-9.642666l0.213333-2.005334 0.554667-1.877333 173.568-322.133333V241.194667c0-7.04 3.968-13.013333 9.344-14.592l2.773333-0.384h74.538667zM3865.6 3.498667c7.68 0 14.08 5.461333 15.573333 12.714666l0.341334 3.2v27.050667h128.042666c132.608 0 230.485333 101.717333 235.093334 226.304l0.128 9.130667v535.893333c0 124.842667-66.816 190.122667-165.717334 193.877333l-9.088 0.170667h-44.629333c-13.44 0-17.92-8.32-16.170667-16.298667l0.810667-2.645333 20.906667-52.394667a23.04 23.04 0 0 1 19.626666-15.573333l3.968-0.213333 16.213334-0.085334 7.168-0.768 5.973333-1.109333 6.698667-1.834667c23.210667-7.381333 54.528-28.714667 57.429333-90.154666l0.256-9.514667V310.101333c0-84.053333-53.12-160.597333-157.525333-165.290666l-10.24-0.256h-178.176c-13.098667 0-17.194667-8.32-18.432-13.909334l-0.512-3.456L3783.253333 19.413333c0-7.68 5.546667-14.08 12.8-15.573333l3.2-0.341333H3865.6zM967.04 411.477333a18.773333 18.773333 0 0 1 17.621333 13.44l0.64 3.370667 33.28 472.106667a14.208 14.208 0 0 1-3.925333 11.093333 13.738667 13.738667 0 0 1-7.637333 4.394667l-3.072 0.298666h-72.618667a18.645333 18.645333 0 0 1-17.749333-13.44l-0.597334-3.413333-33.152-472.021333a14.336 14.336 0 0 1 11.52-15.530667l3.2-0.298667h72.490667zM3865.6 226.218667c7.68 0 14.08 5.589333 15.573333 12.842666l0.341334 3.2v523.904c1.450667 22.186667 19.626667 39.637333 41.941333 39.637334 20.778667 0 37.973333-15.146667 41.386667-35.114667l0.512-4.693333V242.304c0-7.637333 5.546667-14.208 12.714666-15.701333l3.2-0.341334h66.389334c7.594667 0 14.08 5.589333 15.573333 12.842667l0.298667 3.2v521.173333a140.288 140.288 0 0 1-140.074667 140.373334 140.288 140.288 0 0 1-139.946667-132.437334l-0.213333-7.936V242.261333c0-7.637333 5.546667-14.208 12.8-15.701333l3.2-0.341333H3865.6zM197.333333 475.861333c3.968 0 7.125333 1.450667 8.96 3.84a9.856 9.856 0 0 1 1.621334 7.68l-0.512 2.304-99.370667 397.525334a17.408 17.408 0 0 1-13.312 11.861333l-3.114667 0.298667H11.392c-4.053333 0-7.210667-1.28-9.045333-3.754667a9.941333 9.941333 0 0 1-1.536-7.722667l99.84-399.872a17.493333 17.493333 0 0 1 13.312-11.861333l3.157333-0.298667h80.213333zM3492.48 14.805333a220.288 220.288 0 0 1 219.904 211.2l0.170667 9.386667v456.746667a16.128 16.128 0 0 1-12.714667 15.786666l-3.242667 0.341334h-66.005333a15.957333 15.957333 0 0 1-15.488-12.885334l-0.341333-3.242666-0.128-457.386667a122.368 122.368 0 0 0-122.282667-122.496 122.282667 122.282667 0 0 0-121.898667 115.285333l-0.213333 7.210667-0.042667 457.386667a16.213333 16.213333 0 0 1-12.8 15.786666l-3.242666 0.341334h-65.877334a16.085333 16.085333 0 0 1-15.658666-12.885334l-0.341334-3.242666V235.349333c0-121.813333 98.56-220.586667 220.16-220.586666zM2890.496 102.058667H2457.173333a141.312 141.312 0 0 0-131.242666 89.045333l-2.773334 7.552h606.549334c7.722667 0 14.208 5.504 15.744 12.8l0.298666 3.2v58.197333c0 7.808-5.546667 14.293333-12.8 15.786667l-3.242666 0.341333H2323.157333a141.44 141.44 0 0 0 125.141334 96.256l8.448 0.298667h434.090666a141.525333 141.525333 0 0 0 141.098667-141.653333 141.653333 141.653333 0 0 0-133.418667-141.568l-8.021333-0.256zM1603.498667 0.256c9.301333 0 17.92 3.114667 24.789333 8.448l3.882667 3.413333L1683.968 64h169.344c144.554667 0 223.701333 73.557333 227.669333 202.581333l0.170667 10.325334v27.477333a15.445333 15.445333 0 0 1-12.245333 15.232l-3.114667 0.298667h-77.653333a15.488 15.488 0 0 1-15.189334-12.373334l-0.298666-3.157333v-19.584c0-87.168-40.96-126.976-133.376-129.536l-9.728-0.128H1377.578667c-96.042667 0-140.202667 36.906667-143.061334 120.832l-0.128 8.832v19.584a15.488 15.488 0 0 1-12.501333 15.232l-3.029333 0.298667h-77.568a15.445333 15.445333 0 0 1-15.146667-12.373334l-0.298667-3.157333V276.906667c0-131.925333 75.52-208.896 216.661334-212.778667l11.264-0.128h169.344l51.626666-51.797333 0.213334-0.042667a39.68 39.68 0 0 1 28.544-11.946667z m-857.301334 0a40.106667 40.106667 0 0 1 24.789334 8.448l4.010666 3.498667 51.626667 51.797333h147.370667c7.68 0 14.08 5.418667 15.616 12.672l0.298666 3.2v60.245333c0 7.722667-5.461333 14.08-12.714666 15.573334l-3.2 0.298666H56.021333a15.872 15.872 0 0 1-15.573333-12.672l-0.298667-3.2V79.872c0-7.68 5.461333-14.08 12.672-15.573333l3.2-0.298667H203.52L255.104 12.202667A40.533333 40.533333 0 0 1 308.608 8.704l3.882667 3.413333L364.245333 64h301.482667L717.44 12.16a40.533333 40.533333 0 0 1 28.757333-11.946667z" p-id="7396" fill="#ffffff"></path></svg>