<?xml version="1.0" standalone="no"?><!DOCTYPE svg PUBLIC "-//W3C//DTD SVG 1.1//EN" "http://www.w3.org/Graphics/SVG/1.1/DTD/svg11.dtd"><svg t="1612255436539" class="icon" viewBox="0 0 1024 1024" version="1.1" xmlns="http://www.w3.org/2000/svg" p-id="1395" xmlns:xlink="http://www.w3.org/1999/xlink" width="128" height="128"><defs><style type="text/css"></style></defs><path d="M491.2 233.6c0-3.2-3.2-8-8-8h-32c-1.6 0-3.2 0-4.8 1.6-1.6 1.6-1.6 3.2-1.6 4.8l14.4 204.8c0 4.8 3.2 8 8 8h32c1.6 0 3.2 0 4.8-1.6 1.6-1.6 1.6-3.2 1.6-4.8l-14.4-204.8zM153.6 259.2v-4.8c-1.6-1.6-1.6-1.6-3.2-1.6H115.2c-3.2 0-6.4 1.6-6.4 4.8L64 430.4v4.8c0 1.6 1.6 1.6 3.2 1.6h35.2c3.2 0 6.4-1.6 6.4-4.8l44.8-172.8zM486.4 75.2h-64L400 52.8c-3.2-3.2-8-4.8-12.8-4.8-4.8 0-9.6 1.6-12.8 4.8L352 75.2h-131.2l-22.4-22.4c-1.6-3.2-6.4-4.8-11.2-4.8-4.8 0-9.6 1.6-12.8 4.8L152 75.2h-64c-3.2 0-6.4 3.2-6.4 6.4v25.6c0 3.2 3.2 6.4 6.4 6.4h398.4c3.2 0 6.4-3.2 6.4-6.4V81.6c0-3.2-3.2-6.4-6.4-6.4z m-188.8 104h-33.6l6.4-25.6v-4.8c-1.6-1.6-3.2-1.6-4.8-1.6h-35.2c-3.2 0-8 3.2-8 6.4l-6.4 27.2H99.2c-3.2 0-6.4 3.2-6.4 6.4v25.6c0 3.2 3.2 6.4 6.4 6.4h107.2l-64 257.6v6.4c1.6 1.6 3.2 1.6 4.8 1.6h35.2c3.2 0 8-3.2 8-6.4l64-259.2h40c49.6 0 80 36.8 80 80v65.6c0 51.2-35.2 80-80 80h-24c-4.8 0-8 3.2-9.6 6.4l-6.4 25.6c0 3.2 1.6 8 8 8h32c70.4 0 126.4-41.6 126.4-120v-65.6c-1.6-70.4-49.6-120-123.2-120z m97.6 616H161.6l14.4-33.6h211.2c54.4 0 99.2-44.8 99.2-99.2 0-54.4-44.8-99.2-99.2-99.2H182.4c-54.4 0-99.2 44.8-99.2 99.2 0 36.8 19.2 68.8 49.6 84.8l-64 155.2s-3.2 8 6.4 8h30.4c4.8 0 9.6-3.2 11.2-6.4L145.6 832h57.6l-62.4 153.6s-3.2 8 6.4 8h33.6c4.8 0 9.6-3.2 11.2-6.4l64-155.2h59.2l-62.4 153.6s-3.2 8 6.4 8h33.6c4.8 0 9.6-3.2 11.2-6.4l64-155.2h20.8c32 0 57.6 25.6 57.6 57.6v9.6c0 32-22.4 57.6-57.6 57.6h-8c-4.8 0-8 1.6-9.6 6.4l-9.6 22.4c-1.6 3.2 0 8 6.4 8h30.4c52.8 0 92.8-44.8 92.8-94.4v-11.2c-3.2-49.6-43.2-92.8-96-92.8zM132.8 681.6h262.4c3.2 0 6.4-3.2 6.4-6.4v-25.6c0-3.2-3.2-6.4-6.4-6.4H132.8c8-24 30.4-41.6 57.6-41.6h187.2c33.6 0 60.8 27.2 60.8 60.8 0 33.6-27.2 60.8-60.8 60.8H190.4c-27.2 0-49.6-17.6-57.6-41.6zM867.2 75.2h-73.6l-22.4-22.4c-3.2-3.2-8-4.8-12.8-4.8-4.8 0-9.6 1.6-12.8 4.8l-22.4 22.4h-73.6c-64 0-99.2 33.6-99.2 92.8v11.2c0 3.2 3.2 6.4 6.4 6.4H592c3.2 0 6.4-3.2 6.4-6.4v-8c0-38.4 19.2-56 62.4-56h195.2c43.2 0 62.4 17.6 62.4 56v8c0 3.2 3.2 6.4 6.4 6.4H960c3.2 0 6.4-3.2 6.4-6.4v-11.2c0-59.2-35.2-92.8-99.2-92.8z m92.8 142.4H560c-3.2 0-6.4 3.2-6.4 6.4v25.6c0 3.2 3.2 6.4 6.4 6.4h243.2v104c0 52.8-33.6 84.8-84.8 84.8H640c-4.8 0-8 3.2-9.6 6.4l-6.4 25.6c0 3.2 1.6 8 8 8h97.6c67.2 0 121.6-49.6 121.6-121.6V256H960c3.2 0 6.4-3.2 6.4-6.4V224c0-3.2-3.2-6.4-6.4-6.4zM660.8 848V660.8c0-3.2-1.6-6.4-4.8-6.4h-32c-3.2 0-4.8 3.2-4.8 6.4V848L544 987.2v1.6c0 1.6 1.6 4.8 4.8 4.8h35.2c4.8 0 8-3.2 9.6-6.4l48-89.6 48 89.6c1.6 3.2 4.8 6.4 9.6 6.4h35.2c1.6 0 4.8-1.6 4.8-4.8v-1.6L660.8 848z m30.4-190.4c0-28.8-24-52.8-52.8-52.8-28.8 0-52.8 24-52.8 52.8v198.4c0 3.2-3.2 6.4-6.4 6.4h-28.8c-3.2 0-6.4-3.2-6.4-6.4V657.6c0-52.8 43.2-96 96-96s96 43.2 96 96v198.4c0 3.2-3.2 6.4-6.4 6.4h-28.8c-3.2 0-6.4-3.2-6.4-6.4l-3.2-198.4z m188.8-3.2h-28.8c-3.2 0-6.4 3.2-6.4 6.4v227.2c0 9.6-8 17.6-17.6 17.6-9.6 0-17.6-8-17.6-17.6V660.8c0-3.2-3.2-6.4-6.4-6.4h-28.8c-3.2 0-6.4 3.2-6.4 6.4v225.6c0 33.6 27.2 60.8 60.8 60.8 33.6 0 60.8-27.2 60.8-60.8V660.8c-3.2-3.2-6.4-6.4-9.6-6.4zM862.4 576h-56v-11.2c0-3.2-3.2-6.4-6.4-6.4h-28.8c-3.2 0-6.4 3.2-6.4 6.4v46.4s0 8 8 8h76.8c48 0 72 33.6 72 72V912c0 46.4-35.2 44.8-35.2 44.8h-4.8c-4.8 0-8 1.6-9.6 6.4l-8 22.4c-1.6 3.2 0 8 6.4 8h19.2c44.8 0 75.2-28.8 75.2-84.8V676.8c0-54.4-43.2-100.8-102.4-100.8z" p-id="1396" fill="#ffffff"></path></svg>